<svg width="64" height="48" viewBox="0 0 64 48" xmlns="http://www.w3.org/2000/svg">
  <!-- Sombra -->
  <ellipse cx="32" cy="42" rx="24" ry="3" fill="#000000" opacity="0.25"/>

  <!-- Cuerpo de la esponja -->
  <rect x="6" y="10" width="52" height="28" rx="6" fill="#FFD040"/>
  <rect x="6" y="10" width="52" height="14" rx="6" fill="#FFE070"/>

  <!-- Borde inferior más oscuro (capa de espuma) -->
  <rect x="6" y="32" width="52" height="6" rx="3" fill="#2D8FCC"/>
  <rect x="6" y="32" width="52" height="3" rx="2" fill="#4FB0E8"/>

  <!-- Poros / textura de la esponja -->
  <circle cx="14" cy="18" r="1.6" fill="#C89020" opacity="0.7"/>
  <circle cx="22" cy="16" r="1.2" fill="#C89020" opacity="0.7"/>
  <circle cx="30" cy="20" r="1.8" fill="#C89020" opacity="0.7"/>
  <circle cx="38" cy="15" r="1.4" fill="#C89020" opacity="0.7"/>
  <circle cx="46" cy="18" r="1.6" fill="#C89020" opacity="0.7"/>
  <circle cx="52" cy="20" r="1.2" fill="#C89020" opacity="0.7"/>
  <circle cx="18" cy="24" r="1.3" fill="#C89020" opacity="0.7"/>
  <circle cx="26" cy="26" r="1.5" fill="#C89020" opacity="0.7"/>
  <circle cx="34" cy="24" r="1.2" fill="#C89020" opacity="0.7"/>
  <circle cx="42" cy="26" r="1.6" fill="#C89020" opacity="0.7"/>
  <circle cx="50" cy="25" r="1.3" fill="#C89020" opacity="0.7"/>

  <!-- Brillo superior izquierdo -->
  <ellipse cx="18" cy="14" rx="8" ry="2.5" fill="#FFFFFF" opacity="0.35"/>
</svg>
