<svg width="256" height="256" viewBox="0 0 256 256" xmlns="http://www.w3.org/2000/svg">
  <defs>
    <linearGradient id="coatGrad" x1="0%" y1="0%" x2="0%" y2="100%">
      <stop offset="0%" stop-color="#6E5238"/>
      <stop offset="100%" stop-color="#3E2818"/>
    </linearGradient>
    <pattern id="woolTexture" patternUnits="userSpaceOnUse" width="4" height="4">
      <circle cx="2" cy="2" r="0.6" fill="#8E6E48" opacity="0.4"/>
    </pattern>
  </defs>
  <!-- Cuerpo amplio del abrigo -->
  <path d="M 60 55 L 25 90 L 30 240 L 70 245 L 80 105 L 80 240 L 176 240 L 176 105 L 186 245 L 226 240 L 231 90 L 196 55 L 156 50 Q 128 75 100 50 Z" fill="url(#coatGrad)"/>
  <!-- Textura de lana superpuesta -->
  <path d="M 60 55 L 25 90 L 30 240 L 70 245 L 80 105 L 80 240 L 176 240 L 176 105 L 186 245 L 226 240 L 231 90 L 196 55 L 156 50 Q 128 75 100 50 Z" fill="url(#woolTexture)"/>
  <!-- Sombras -->
  <path d="M 80 105 L 80 240 L 95 240 L 95 105 Z" fill="#000000" opacity="0.3"/>
  <path d="M 176 105 L 176 240 L 161 240 L 161 105 Z" fill="#000000" opacity="0.3"/>
  <!-- Solapas grandes (típico abrigo) -->
  <path d="M 100 50 L 80 100 L 128 130 L 128 60 Z" fill="#3A2010"/>
  <path d="M 156 50 L 176 100 L 128 130 L 128 60 Z" fill="#3A2010"/>
  <line x1="100" y1="50" x2="80" y2="100" stroke="#1A0808" stroke-width="0.8"/>
  <line x1="156" y1="50" x2="176" y2="100" stroke="#1A0808" stroke-width="0.8"/>
  <line x1="80" y1="100" x2="128" y2="130" stroke="#1A0808" stroke-width="0.8"/>
  <line x1="176" y1="100" x2="128" y2="130" stroke="#1A0808" stroke-width="0.8"/>
  <!-- Bufanda del cuello -->
  <path d="M 110 55 Q 128 50 146 55 L 142 70 Q 128 65 114 70 Z" fill="#5A3818"/>
  <!-- Botones grandes de cuerno -->
  <circle cx="105" cy="155" r="4.5" fill="#2A1808"/>
  <circle cx="105" cy="155" r="3" fill="#4A2818"/>
  <circle cx="105" cy="195" r="4.5" fill="#2A1808"/>
  <circle cx="105" cy="195" r="3" fill="#4A2818"/>
  <!-- Bolsillos laterales con solapa -->
  <rect x="95" y="160" width="38" height="6" fill="#3A2010"/>
  <rect x="155" y="160" width="38" height="6" fill="#3A2010"/>
  <!-- Cinturón ancho -->
  <rect x="80" y="170" width="96" height="8" fill="#2A1808"/>
  <rect x="80" y="170" width="96" height="2" fill="#5A3818"/>
  <rect x="124" y="168" width="8" height="12" fill="#8E6E48"/>
  <!-- Cierre central -->
  <line x1="128" y1="130" x2="128" y2="240" stroke="#2A1008" stroke-width="1.2"/>
  <!-- Brillo lateral -->
  <path d="M 90 110 L 90 230 Q 95 210 95 110 Z" fill="#FFFFFF" opacity="0.08"/>
</svg>
