<svg width="256" height="256" viewBox="0 0 256 256" xmlns="http://www.w3.org/2000/svg">
  <defs>
    <linearGradient id="shirtGrad" x1="0%" y1="0%" x2="0%" y2="100%">
      <stop offset="0%" stop-color="#4A5A8E"/>
      <stop offset="100%" stop-color="#2A3A5E"/>
    </linearGradient>
  </defs>
  <path d="M 70 60 L 50 80 L 60 95 L 80 90 L 80 220 L 176 220 L 176 90 L 196 95 L 206 80 L 186 60 L 156 50 Q 128 70 100 50 Z" fill="#000000" opacity="0.2" transform="translate(2,3)"/>
  <path d="M 70 60 L 50 80 L 60 95 L 80 90 L 80 220 L 176 220 L 176 90 L 196 95 L 206 80 L 186 60 L 156 50 Q 128 70 100 50 Z" fill="url(#shirtGrad)"/>
  <path d="M 80 90 L 80 220 L 95 220 L 95 95 Z" fill="#000000" opacity="0.2"/>
  <path d="M 176 90 L 176 220 L 161 220 L 161 95 Z" fill="#000000" opacity="0.2"/>
  <!-- Cuello camisero (estilo solapa) -->
  <path d="M 100 50 L 110 75 L 128 90 L 146 75 L 156 50 L 144 58 L 128 75 L 112 58 Z" fill="#1A2A4A"/>
  <!-- Tira central de botones -->
  <line x1="128" y1="90" x2="128" y2="218" stroke="#1A2A4A" stroke-width="2"/>
  <circle cx="128" cy="105" r="2.2" fill="#D8D8E8"/>
  <circle cx="128" cy="130" r="2.2" fill="#D8D8E8"/>
  <circle cx="128" cy="155" r="2.2" fill="#D8D8E8"/>
  <circle cx="128" cy="180" r="2.2" fill="#D8D8E8"/>
  <circle cx="128" cy="205" r="2.2" fill="#D8D8E8"/>
  <!-- Bolsillo del pecho -->
  <rect x="98" y="115" width="22" height="26" fill="none" stroke="#1A2A4A" stroke-width="1"/>
  <line x1="98" y1="121" x2="120" y2="121" stroke="#1A2A4A" stroke-width="0.6"/>
  <!-- Costuras -->
  <line x1="80" y1="92" x2="92" y2="92" stroke="#5A6A9E" stroke-width="0.8"/>
  <line x1="164" y1="92" x2="176" y2="92" stroke="#5A6A9E" stroke-width="0.8"/>
  <!-- Brillo lateral -->
  <path d="M 90 100 L 90 200 Q 95 180 95 100 Z" fill="#FFFFFF" opacity="0.15"/>
</svg>
