<svg width="256" height="256" viewBox="0 0 256 256" xmlns="http://www.w3.org/2000/svg">
  <defs>
    <linearGradient id="sg" x1="0%" y1="0%" x2="100%" y2="0%">
      <stop offset="0%"   stop-color="#283E72"/>
      <stop offset="30%"  stop-color="#364E8A"/>
      <stop offset="55%"  stop-color="#3E5896"/>
      <stop offset="80%"  stop-color="#364E8A"/>
      <stop offset="100%" stop-color="#24387A"/>
    </linearGradient>
    <linearGradient id="sg_v" x1="0%" y1="0%" x2="0%" y2="100%">
      <stop offset="0%"   stop-color="#3A4E8A"/>
      <stop offset="100%" stop-color="#243470"/>
    </linearGradient>
    <linearGradient id="collar_g" x1="0%" y1="0%" x2="0%" y2="100%">
      <stop offset="0%"   stop-color="#F0EEE8"/>
      <stop offset="100%" stop-color="#D8D6D0"/>
    </linearGradient>
  </defs>

  <!-- Sombra -->
  <path d="M100,52 C86,52 74,58 68,68 L42,72 C26,80 18,96 22,112 L48,116 C56,112 64,110 70,114 L70,240 L186,240 L186,114 C192,110 200,112 208,116 L234,112 C238,96 230,80 214,72 L188,68 C182,58 170,52 156,52 C150,56 140,62 128,66 C116,62 106,56 100,52 Z"
        fill="#000000" opacity="0.2" transform="translate(3,5)"/>

  <!-- Cuerpo principal -->
  <path d="M100,52 C86,52 74,58 68,68 L42,72 C26,80 18,96 22,112 L48,116 C56,112 64,110 70,114 L70,240 L186,240 L186,114 C192,110 200,112 208,116 L234,112 C238,96 230,80 214,72 L188,68 C182,58 170,52 156,52 C150,56 140,62 128,66 C116,62 106,56 100,52 Z"
        fill="url(#sg)"/>

  <!-- Cuello solapa izquierda -->
  <path d="M100,52 L112,72 L128,88 L128,62 Z" fill="#1C2E5E"/>
  <!-- Cuello solapa derecha -->
  <path d="M156,52 L144,72 L128,88 L128,62 Z" fill="#1C2E5E"/>
  <!-- Collar externo blanco (cuello de camisa visible) -->
  <path d="M100,52 C108,50 116,52 120,56 L128,62 L136,56 C140,52 148,50 156,52 L148,58 L128,68 L108,58 Z"
        fill="url(#collar_g)"/>
  <path d="M100,52 L108,58 L128,68 L148,58 L156,52" stroke="#C0BEBC" stroke-width="0.7" fill="none"/>

  <!-- Sombra manga izquierda -->
  <path d="M42,72 C26,80 18,96 22,112 L36,112 C32,98 36,86 48,78 Z" fill="#000" opacity="0.15"/>
  <!-- Sombra manga derecha -->
  <path d="M214,72 C230,80 238,96 234,112 L220,112 C224,98 220,86 208,78 Z" fill="#000" opacity="0.15"/>

  <!-- Costados oscuros -->
  <path d="M70,114 L70,240 L82,240 L84,118 Z" fill="#000" opacity="0.12"/>
  <path d="M186,114 L186,240 L174,240 L172,118 Z" fill="#000" opacity="0.12"/>

  <!-- Tira de botones central -->
  <rect x="124" y="88" width="8" height="150" fill="#1C2E5E" opacity="0.5"/>
  <!-- Botones -->
  <circle cx="128" cy="104" r="2.5" fill="#D8D6D0"/>
  <circle cx="128" cy="126" r="2.5" fill="#D8D6D0"/>
  <circle cx="128" cy="148" r="2.5" fill="#D8D6D0"/>
  <circle cx="128" cy="170" r="2.5" fill="#D8D6D0"/>
  <circle cx="128" cy="192" r="2.5" fill="#D8D6D0"/>
  <circle cx="128" cy="214" r="2.5" fill="#D8D6D0"/>

  <!-- Bolsillo del pecho -->
  <rect x="96" y="118" width="24" height="28" rx="1" fill="none" stroke="#1C2E5E" stroke-width="1.2"/>
  <line x1="96" y1="124" x2="120" y2="124" stroke="#1C2E5E" stroke-width="0.6"/>
  <line x1="106" y1="118" x2="106" y2="124" stroke="#1C2E5E" stroke-width="0.6"/>

  <!-- Pliegues de tela -->
  <path d="M84,150 C104,154 152,154 172,150" stroke="#243886" stroke-width="0.8" fill="none" opacity="0.5"/>
  <path d="M80,195 C102,198 154,198 176,195" stroke="#243886" stroke-width="0.7" fill="none" opacity="0.5"/>

  <!-- Costuras de las mangas -->
  <path d="M22,112 C34,116 48,116 48,114" stroke="#3A4E8A" stroke-width="1.2" fill="none"/>
  <path d="M234,112 C222,116 208,116 208,114" stroke="#3A4E8A" stroke-width="1.2" fill="none"/>

  <!-- Brillo -->
  <path d="M112,68 C110,148 110,205 112,240 L118,240 C116,205 116,148 118,68 Z" fill="#FFFFFF" opacity="0.12"/>
</svg>
