<svg width="256" height="256" viewBox="0 0 256 256" xmlns="http://www.w3.org/2000/svg">
  <defs>
    <radialGradient id="tg" cx="50%" cy="35%" r="65%">
      <stop offset="0%"   stop-color="#6A2A9A"/>
      <stop offset="45%"  stop-color="#3A1268"/>
      <stop offset="100%" stop-color="#160838"/>
    </radialGradient>
    <linearGradient id="tg2" x1="0%" y1="0%" x2="100%" y2="0%">
      <stop offset="0%"   stop-color="#240C4A"/>
      <stop offset="30%"  stop-color="#4E1A80"/>
      <stop offset="55%"  stop-color="#5E2490"/>
      <stop offset="80%"  stop-color="#4E1A80"/>
      <stop offset="100%" stop-color="#200840"/>
    </linearGradient>
    <linearGradient id="glow_edge" x1="0%" y1="0%" x2="100%" y2="0%">
      <stop offset="0%"   stop-color="#CC60FF" stop-opacity="0"/>
      <stop offset="50%"  stop-color="#CC60FF" stop-opacity="0.6"/>
      <stop offset="100%" stop-color="#CC60FF" stop-opacity="0"/>
    </linearGradient>
  </defs>

  <!-- Sombra -->
  <path d="M78,46 C60,46 38,60 26,80 L16,104 C14,120 18,148 22,168 C28,192 30,220 28,244 L228,244 C226,220 228,192 234,168 C238,148 242,120 240,104 L230,80 C218,60 196,46 178,46 L152,38 Q128,62 104,38 Z"
        fill="#0A0020" opacity="0.4" transform="translate(3,6)"/>

  <!-- Cuerpo fluido de la túnica (muy amplio en la base) -->
  <path d="M78,46 C60,46 38,60 26,80 L16,104 C14,120 18,148 22,168 C28,192 30,220 28,244 L228,244 C226,220 228,192 234,168 C238,148 242,120 240,104 L230,80 C218,60 196,46 178,46 L152,38 Q128,62 104,38 Z"
        fill="url(#tg2)"/>

  <!-- Capucha -->
  <path d="M104,38 Q128,20 152,38 L146,50 Q128,34 110,50 Z" fill="#1A0840"/>
  <ellipse cx="128" cy="52" rx="18" ry="11" fill="#0A0028" opacity="0.85"/>

  <!-- Sombras de profundidad en los costados -->
  <path d="M26,80 L16,104 C14,120 18,148 22,168 L44,160 C38,142 36,118 38,102 Z" fill="#000" opacity="0.25"/>
  <path d="M230,80 L240,104 C242,120 238,148 234,168 L212,160 C218,142 220,118 218,102 Z" fill="#000" opacity="0.25"/>

  <!-- Símbolo central: círculo místico con triángulos entrelazados -->
  <circle cx="128" cy="130" r="32"  fill="none" stroke="#AA40FF" stroke-width="1.2" opacity="0.8"/>
  <circle cx="128" cy="130" r="22"  fill="none" stroke="#CC60FF" stroke-width="0.8" opacity="0.6"/>
  <circle cx="128" cy="130" r="5"   fill="#EE88FF" opacity="0.7"/>
  <!-- Triángulo hacia arriba -->
  <path d="M128,102 L148,136 L108,136 Z" fill="none" stroke="#AA40FF" stroke-width="1" opacity="0.7"/>
  <!-- Triángulo hacia abajo -->
  <path d="M128,158 L108,124 L148,124 Z" fill="none" stroke="#CC60FF" stroke-width="1" opacity="0.7"/>
  <!-- Puntos en las intersecciones -->
  <circle cx="128" cy="102" r="2" fill="#FFAAFF" opacity="0.9"/>
  <circle cx="148" cy="136" r="2" fill="#FFAAFF" opacity="0.9"/>
  <circle cx="108" cy="136" r="2" fill="#FFAAFF" opacity="0.9"/>

  <!-- Pliegues luminosos verticales -->
  <path d="M44,84 C38,140 34,195 36,244"  stroke="#AA40FF" stroke-width="1.5" fill="none" opacity="0.35"/>
  <path d="M84,68 C80,130 78,195 80,244"  stroke="#AA40FF" stroke-width="1"   fill="none" opacity="0.3"/>
  <path d="M128,62 L128,244"              stroke="#CC60FF" stroke-width="0.8" fill="none" opacity="0.25"/>
  <path d="M172,68 C176,130 178,195 176,244" stroke="#AA40FF" stroke-width="1"   fill="none" opacity="0.3"/>
  <path d="M212,84 C218,140 222,195 220,244" stroke="#AA40FF" stroke-width="1.5" fill="none" opacity="0.35"/>

  <!-- Borde inferior con glow -->
  <path d="M28,244 L228,244" stroke="url(#glow_edge)" stroke-width="2.5" fill="none"/>
  <!-- Estrellas/partículas flotantes -->
  <circle cx="58"  cy="168" r="1.2" fill="#EE88FF" opacity="0.9"/>
  <circle cx="96"  cy="200" r="1"   fill="#FFFFFF"  opacity="0.8"/>
  <circle cx="162" cy="185" r="1.2" fill="#EE88FF"  opacity="0.9"/>
  <circle cx="198" cy="172" r="1"   fill="#FFFFFF"  opacity="0.8"/>
  <circle cx="76"  cy="220" r="0.8" fill="#CC80FF"  opacity="0.7"/>
  <circle cx="180" cy="225" r="0.8" fill="#CC80FF"  opacity="0.7"/>
  <circle cx="120" cy="215" r="1"   fill="#FFFFFF"  opacity="0.7"/>
  <circle cx="140" cy="224" r="0.8" fill="#EE88FF"  opacity="0.7"/>

  <!-- Brillo central -->
  <path d="M116,44 C114,130 114,200 116,244 L124,244 C122,200 122,130 124,44 Z" fill="#FFFFFF" opacity="0.07"/>
</svg>
