<svg width="256" height="256" viewBox="0 0 256 256" xmlns="http://www.w3.org/2000/svg">
  <!-- Tirantes -->
  <rect x="106" y="35" width="3" height="25" fill="#5A1A2E"/>
  <rect x="147" y="35" width="3" height="25" fill="#5A1A2E"/>

  <!-- Parte superior (corpiño) -->
  <path d="M 100 55 Q 128 50 156 55 L 160 90 L 96 90 Z" fill="#5A1A2E"/>

  <!-- Falda en A — más ancha abajo -->
  <path d="M 96 90 L 60 220 L 196 220 L 160 90 Z" fill="#7A2A4E"/>

  <!-- Sombras laterales -->
  <path d="M 96 90 L 60 220 L 80 220 L 110 90 Z" fill="#000000" opacity="0.2"/>
  <path d="M 160 90 L 196 220 L 176 220 L 146 90 Z" fill="#000000" opacity="0.2"/>

  <!-- Pliegues de la falda -->
  <line x1="110" y1="100" x2="92" y2="218" stroke="#5A1A2E" stroke-width="1" opacity="0.6"/>
  <line x1="128" y1="100" x2="128" y2="218" stroke="#5A1A2E" stroke-width="1" opacity="0.6"/>
  <line x1="146" y1="100" x2="164" y2="218" stroke="#5A1A2E" stroke-width="1" opacity="0.6"/>
  <line x1="120" y1="105" x2="108" y2="218" stroke="#5A1A2E" stroke-width="0.5" opacity="0.4"/>
  <line x1="136" y1="105" x2="148" y2="218" stroke="#5A1A2E" stroke-width="0.5" opacity="0.4"/>

  <!-- Línea cintura -->
  <path d="M 96 90 Q 128 92 160 90" stroke="#3A0A1E" stroke-width="1.5" fill="none"/>

  <!-- Brillo del corpiño -->
  <path d="M 105 60 Q 105 80 105 88 L 110 88 Q 110 75 110 62 Z" fill="#FFFFFF" opacity="0.2"/>

  <!-- Brillo de la falda -->
  <path d="M 100 95 L 88 220 Q 95 200 110 95 Z" fill="#FFFFFF" opacity="0.12"/>

  <!-- Detalle decorativo en el escote -->
  <path d="M 116 65 Q 128 60 140 65 Q 128 70 116 65" fill="#3A0A1E" opacity="0.6"/>
</svg>
